<?xml version="1.0" standalone="no"?>
<!DOCTYPE svg PUBLIC "-//W3C//DTD SVG 20010904//EN"
 "http://www.w3.org/TR/2001/REC-SVG-20010904/DTD/svg10.dtd">
<svg version="1.0" xmlns="http://www.w3.org/2000/svg"
 width="862.000000pt" height="832.000000pt" viewBox="0 0 862.000000 832.000000"
 preserveAspectRatio="xMidYMid meet">
<metadata>
Created by potrace 1.15, written by Peter Selinger 2001-2017
</metadata>
<g transform="translate(0.000000,832.000000) scale(0.100000,-0.100000)"
fill="#000000" stroke="none">
<path d="M0 4160 l0 -4160 4308 2 4307 3 0 4155 0 4155 -4307 3 -4308 2 0
-4160z m7249 21 c233 -522 423 -953 423 -958 -1 -4 -63 -8 -139 -8 l-136 0
-126 282 -126 283 -405 0 -405 0 -120 -282 -120 -283 -140 0 c-88 0 -139 4
-138 10 2 11 801 1883 809 1897 3 4 49 8 102 8 l97 0 424 -949z m-6029 529 l0
-410 530 0 530 0 0 410 0 410 140 0 140 0 -2 -952 -3 -953 -137 -3 -138 -3 0
416 0 415 -530 0 -530 0 -2 -412 -3 -413 -137 -3 -138 -3 0 956 0 955 140 0
140 0 0 -410z m3310 382 c225 -49 368 -127 506 -275 260 -280 326 -698 165
-1043 -53 -112 -111 -193 -202 -279 -125 -118 -253 -191 -424 -240 -115 -33
-351 -47 -755 -43 l-285 3 -3 953 -2 954 452 -5 c411 -4 462 -6 548 -25z"/>
<path d="M6591 4379 c-73 -175 -135 -328 -138 -339 -5 -20 -1 -20 286 -20 160
0 291 2 291 4 0 4 -300 669 -303 672 -1 2 -62 -141 -136 -317z"/>
<path d="M3810 4177 l0 -707 220 0 c449 0 605 43 775 214 93 94 143 184 176
315 28 112 23 321 -9 421 -50 154 -179 307 -312 372 -157 77 -169 79 -527 85
l-323 6 0 -706z"/>
</g>
</svg>
