<?xml version="1.0" encoding="utf-8"?>
<!-- Generator: Adobe Illustrator 21.0.0, SVG Export Plug-In . SVG Version: 6.00 Build 0)  -->
<svg version="1.1" id="Layer_1" xmlns="http://www.w3.org/2000/svg" xmlns:xlink="http://www.w3.org/1999/xlink" x="0px" y="0px"
	 viewBox="0 0 841.9 595.3" style="enable-background:new 0 0 841.9 595.3;" xml:space="preserve">
<style type="text/css">
	.st0{fill:#FFFFFF;}
</style>
<g>
	<g>
		<rect x="105.8" y="227.7" width="607.1" height="139.9"/>
		<polygon class="st0" points="220.5,280.5 225.4,280.5 225.4,314.5 220.5,314.5 220.5,299.8 201.5,299.8 201.5,314.5 196.6,314.5 
			196.6,280.5 201.5,280.5 201.5,295.2 220.5,295.2 		"/>
		<path class="st0" d="M242.9,314.4v-33.9h11.5c4.6,0,8.3,0.7,11,2.1c2.7,1.4,4.8,3.4,6.4,6.1c1.6,2.7,2.4,5.6,2.4,8.8
			c0,2.3-0.4,4.5-1.3,6.5c-0.9,2.1-2.1,3.9-3.8,5.5c-1.7,1.6-3.6,2.9-5.8,3.7c-1.3,0.5-2.5,0.8-3.5,1c-1.1,0.2-3.1,0.3-6.1,0.3
			H242.9z M253.8,284.8h-6.1V310h6.2c2.4,0,4.3-0.2,5.7-0.5c1.3-0.3,2.5-0.8,3.4-1.3c0.9-0.5,1.7-1.1,2.5-1.9
			c2.4-2.4,3.6-5.5,3.6-9.2c0-3.7-1.2-6.6-3.7-9c-0.9-0.9-1.9-1.6-3.1-2.1c-1.2-0.5-2.3-0.9-3.4-1.1
			C257.8,284.9,256.1,284.8,253.8,284.8z"/>
		<path class="st0" d="M298.2,280.3h3.4l15.3,34.2h-5l-4.5-10.1h-14.5l-4.3,10.1h-5L298.2,280.3z M305.4,300.1l-5.5-12.2l-5.1,12.2
			H305.4z"/>
		<polygon class="st0" points="357.5,280.5 362.1,280.5 362.1,314.5 357.9,314.5 335.2,288.4 335.2,314.5 330.6,314.5 330.6,280.5 
			334.5,280.5 357.4,306.9 357.4,280.5 		"/>
		<polygon class="st0" points="399.7,280.5 405.6,280.5 393,296.5 393,314.4 388.1,314.4 388.1,296.5 375.5,280.5 381.4,280.5 
			390.5,292.2 		"/>
		<polygon class="st0" points="462.7,280.5 467.5,280.5 453.8,314.6 452.7,314.6 441.6,287 430.4,314.6 429.3,314.6 415.6,280.5 
			420.5,280.5 429.8,304 439.2,280.5 443.8,280.5 453.3,304 		"/>
		<polygon class="st0" points="505.1,280.5 510,280.5 510,314.5 505.1,314.5 505.1,299.8 486.1,299.8 486.1,314.5 481.2,314.5 
			481.2,280.5 486.1,280.5 486.1,295.2 505.1,295.2 		"/>
		<polygon class="st0" points="527.5,280.5 546.7,280.5 546.7,284.8 532.4,284.8 532.4,295.2 546.2,295.2 546.2,299.6 532.4,299.6 
			532.4,310.1 547.2,310.1 547.2,314.4 527.5,314.4 		"/>
		<path class="st0" d="M562.5,314.4v-34h8.5c3.4,0,6.2,0.9,8.2,2.6c2,1.7,3,4,3,6.9c0,2-0.5,3.7-1.5,5.1c-1,1.4-2.4,2.5-4.3,3.2
			c1.1,0.7,2.2,1.7,3.2,2.9c1,1.2,2.5,3.4,4.4,6.5c1.2,1.9,2.1,3.4,2.8,4.4l1.8,2.4h-5.8l-1.5-2.2c0-0.1-0.1-0.2-0.3-0.4l-0.9-1.3
			l-1.5-2.5l-1.6-2.7c-1-1.4-1.9-2.5-2.8-3.3c-0.8-0.8-1.6-1.4-2.3-1.8c-0.7-0.4-1.8-0.6-3.4-0.6h-1.3v14.8L562.5,314.4L562.5,314.4
			z M568.8,284.6h-1.5v10.7h1.9c2.5,0,4.2-0.2,5.1-0.6c0.9-0.4,1.6-1.1,2.1-1.9c0.5-0.9,0.8-1.8,0.8-2.9c0-1.1-0.3-2-0.9-2.9
			c-0.6-0.9-1.4-1.5-2.4-1.8C572.8,284.8,571.1,284.6,568.8,284.6z"/>
		<polygon class="st0" points="602.4,280.5 621.6,280.5 621.6,284.8 607.2,284.8 607.2,295.2 621.1,295.2 621.1,299.6 607.2,299.6 
			607.2,310.1 622,310.1 622,314.4 602.3,314.4 602.3,280.5 		"/>
	</g>
	<g>
		<path d="M722.8,236.6V229H720v-1h6.8v1H724v7.6H722.8z"/>
		<path d="M727.9,236.6V228h1.7l2,6.1c0.2,0.6,0.3,1,0.4,1.3c0.1-0.3,0.3-0.8,0.5-1.4l2.1-6h1.5v8.6H735v-7.2l-2.5,7.2h-1l-2.5-7.3
			v7.3H727.9z"/>
	</g>
</g>
</svg>
